HIERARCHY
ROOT hip
{
  OFFSET 0 0 0
  CHANNELS 6 Xposition Yposition Zposition Zrotation Yrotation Xrotation
  JOINT abdomen
  {
    OFFSET 0 20.6881 -0.73152
    CHANNELS 3 Zrotation Xrotation Yrotation
    JOINT chest
    {
      OFFSET 0 11.7043 -0.48768
      CHANNELS 3 Zrotation Xrotation Yrotation
      JOINT neck
      {
        OFFSET 0 22.1894 -2.19456
        CHANNELS 3 Zrotation Xrotation Yrotation
        JOINT head
        {
          OFFSET -0.24384 7.07133 1.2192
          CHANNELS 3 Zrotation Xrotation Yrotation
          JOINT leftEye
          {
            OFFSET 4.14528 8.04674 8.04672
            CHANNELS 3 Zrotation Xrotation Yrotation
            End Site
            {
              OFFSET 1 0 0
            }
          }
          JOINT rightEye
          {
            OFFSET -3.6576 8.04674 8.04672
            CHANNELS 3 Zrotation Xrotation Yrotation
            End Site
            {
              OFFSET 1 0 0
            }
          }
        }
      }
      JOINT rCollar
      {
        OFFSET -2.68224 19.2634 -4.8768
        CHANNELS 3 Zrotation Xrotation Yrotation
        JOINT rShldr
        {
          OFFSET -8.77824 -1.95073 1.46304
          CHANNELS 3 Zrotation Xrotation Yrotation
          JOINT rForeArm
          {
            OFFSET -28.1742 -1.7115 0.48768
            CHANNELS 3 Zrotation Xrotation Yrotation
            JOINT rHand
            {
              OFFSET -22.5879 0.773209 7.07136
              CHANNELS 3 Zrotation Xrotation Yrotation
              JOINT rThumb1
              {
                OFFSET -1.2192 -0.487915 3.41376
                CHANNELS 3 Zrotation Xrotation Yrotation
                JOINT rThumb2
                {
                  OFFSET -3.37035 -0.52449 3.41376
                  CHANNELS 3 Zrotation Xrotation Yrotation
                  End Site
                  {
                    OFFSET -1.78271 -1.18214 1.43049
                  }
                }
              }
              JOINT rIndex1
              {
                OFFSET -7.75947 0.938293 5.60832
                CHANNELS 3 Zrotation Xrotation Yrotation
                JOINT rIndex2
                {
                  OFFSET -2.54057 -0.884171 1.56538
                  CHANNELS 3 Zrotation Xrotation Yrotation
                  End Site
                  {
                    OFFSET -1.62519 -0.234802 1.16502
                  }
                }
              }
              JOINT rMid1
              {
                OFFSET -8.24714 1.18213 3.41376
                CHANNELS 3 Zrotation Xrotation Yrotation
                JOINT rMid2
                {
                  OFFSET -3.10165 -0.590103 1.0647
                  CHANNELS 3 Zrotation Xrotation Yrotation
                  End Site
                  {
                    OFFSET -2.48547 -0.328903 0.83742
                  }
                }
              }
              JOINT rRing1
              {
                OFFSET -8.82822 0.546677 1.51678
                CHANNELS 3 Zrotation Xrotation Yrotation
                JOINT rRing2
                {
                  OFFSET -2.60934 -0.819778 -0.0198488
                  CHANNELS 3 Zrotation Xrotation Yrotation
                  End Site
                  {
                    OFFSET -2.33842 -0.294052 0.168128
                  }
                }
              }
              JOINT rPinky1
              {
                OFFSET -8.27202 -0.0477905 -0.4584
                CHANNELS 3 Zrotation Xrotation Yrotation
                JOINT rPinky2
                {
                  OFFSET -1.82734 -0.647385 -0.700984
                  CHANNELS 3 Zrotation Xrotation Yrotation
                  End Site
                  {
                    OFFSET -1.69225 -0.51767 -0.607171
                  }
                }
              }
            }
          }
        }
      }
      JOINT lCollar
      {
        OFFSET 2.68224 19.2634 -4.8768
        CHANNELS 3 Zrotation Xrotation Yrotation
        JOINT lShldr
        {
          OFFSET 8.77824 -1.95073 1.46304
          CHANNELS 3 Zrotation Xrotation Yrotation
          JOINT lForeArm
          {
            OFFSET 28.1742 -1.7115 0.48768
            CHANNELS 3 Zrotation Xrotation Yrotation
            JOINT lHand
            {
              OFFSET 22.5879 0.773209 7.07136
              CHANNELS 3 Zrotation Xrotation Yrotation
              JOINT lThumb1
              {
                OFFSET 1.2192 -0.487915 3.41376
                CHANNELS 3 Zrotation Xrotation Yrotation
                JOINT lThumb2
                {
                  OFFSET 3.37035 -0.52449 3.41376
                  CHANNELS 3 Zrotation Xrotation Yrotation
                  End Site
                  {
                    OFFSET 1.78271 -1.18214 1.43049
                  }
                }
              }
              JOINT lIndex1
              {
                OFFSET 7.75947 0.938293 5.60832
                CHANNELS 3 Zrotation Xrotation Yrotation
                JOINT lIndex2
                {
                  OFFSET 2.54057 -0.884171 1.56538
                  CHANNELS 3 Zrotation Xrotation Yrotation
                  End Site
                  {
                    OFFSET 1.62519 -0.234802 1.16502
                  }
                }
              }
              JOINT lMid1
              {
                OFFSET 8.24714 1.18213 3.41376
                CHANNELS 3 Zrotation Xrotation Yrotation
                JOINT lMid2
                {
                  OFFSET 3.10165 -0.590103 1.0647
                  CHANNELS 3 Zrotation Xrotation Yrotation
                  End Site
                  {
                    OFFSET 2.48547 -0.328903 0.83742
                  }
                }
              }
              JOINT lRing1
              {
                OFFSET 8.82822 0.546677 1.51678
                CHANNELS 3 Zrotation Xrotation Yrotation
                JOINT lRing2
                {
                  OFFSET 2.60934 -0.819778 -0.0198488
                  CHANNELS 3 Zrotation Xrotation Yrotation
                  End Site
                  {
                    OFFSET 2.33842 -0.294052 0.168128
                  }
                }
              }
              JOINT lPinky1
              {
                OFFSET 8.27202 -0.0477905 -0.4584
                CHANNELS 3 Zrotation Xrotation Yrotation
                JOINT lPinky2
                {
                  OFFSET 1.82734 -0.647385 -0.700984
                  CHANNELS 3 Zrotation Xrotation Yrotation
                  End Site
                  {
                    OFFSET 1.69225 -0.51767 -0.607171
                  }
                }
              }
            }
          }
        }
      }
    }
  }
  JOINT rButtock
  {
    OFFSET -8.77824 4.35084 1.2192
    CHANNELS 3 Zrotation Xrotation Yrotation
    JOINT rThigh
    {
      OFFSET 0 -1.70687 -2.19456
      CHANNELS 3 Zrotation Xrotation Yrotation
      JOINT rShin
      {
        OFFSET 0 -36.8199 0.73152
        CHANNELS 3 Zrotation Xrotation Yrotation
        JOINT rFoot
        {
          OFFSET 0.73152 -45.1104 -5.12064
          CHANNELS 3 Zrotation Xrotation Yrotation
          End Site
          {
            OFFSET -1.1221 -3.69964 12.103
          }
        }
      }
    }
  }
  JOINT lButtock
  {
    OFFSET 8.77824 4.35084 1.2192
    CHANNELS 3 Zrotation Xrotation Yrotation
    JOINT lThigh
    {
      OFFSET 0 -1.70687 -2.19456
      CHANNELS 3 Zrotation Xrotation Yrotation
      JOINT lShin
      {
        OFFSET 0 -36.8199 0.73152
        CHANNELS 3 Zrotation Xrotation Yrotation
        JOINT lFoot
        {
          OFFSET -0.73152 -45.1104 -5.12064
          CHANNELS 3 Zrotation Xrotation Yrotation
          End Site
          {
            OFFSET 1.1221 -3.69964 12.103
          }
        }
      }
    }
  }
}
MOTION
Frames:	4
Frame Time:	0.03333
-43.66542994976044 59.12901163101196 -82.04083496239036 5.006348515379988 20.899687303585555 3.8326825324640232 -12.008011292053201 11.939312395607567 0.4365702704607296 5.451004929405219 -8.164752638546236 0.43550193282500443 -7.66746193300324 17.710140932898632 -8.981746569890957 13.482862577270517 -26.414134445096437 -15.338562649286805 -0.0577688862263216 0.007449815393779845 0.029076475482501293 -0.04061721400336176 0.09030977506211352 -0.00876657448013781 -0.08375080576713109 -0.1280826421629881 0.010497857347017454 46.209221357992725 27.93399326184955 9.520605806722651 -28.8693415649059 -29.770807007037106 66.66826754501137 0.20442628119801226 -8.773397625675242 0.015424274693181295 0.054127861790175896 -0.08492491795349894 0.1250456625815654 0.06763194619208446 -0.033228336703583126 -0.15769204582352228 -0.2729151493266689 -0.04827044096836105 0.03849169115016553 7.575108383914559 5.326498264798703 0.5194594718764474 -0.008641096434565272 -0.18993600819340375 -0.12198296306904936 2.7151807682062508 0.9536845862134826 0.15066316751777092 -0.05369499855152633 0.07614892528282591 0.08520170069744312 10.372014499974128 0.8368791733395673 -0.04243156304292574 0.057595570176132524 0.0351971387318393 -0.039548182676548985 2.2006489576508503 -0.6901794098506815 -0.15964102429492955 -0.14758584713156284 -0.00254867441661968 0.17222652829475074 -55.51163847922661 49.514308916226874 -23.236026933721995 28.556341316000896 -40.045450330203536 -82.84495587716127 0.8161647570516525 -24.243513987244725 3.095165109188393 -0.012281427179623397 0.02034003654403352 0.017774126571930136 0.16644253200651354 0.00427001548959512 -0.0039419796464493905 -0.03258811319060021 0.13853704710048598 0.14640419772472418 -7.457863064169413 5.3173086721572735 -0.3599662304635987 0.10722914081201358 -0.21913397299772402 0.041167471118370914 -2.755612713328376 0.8249278363959259 0.18376359825697497 -0.060048461861813354 -0.08939991915947378 0.03630010756109058 -10.28840444679671 0.7703762360729448 0.09860584022188737 -0.12955732269347617 -0.07215721332148237 0.10156139114179882 -2.359679667190842 -0.625438287863952 0.3279322697302687 0.1067253876802987 0.1394683540659878 0.047170460346871654 -45.16382675457643 -59.40788574031453 -42.56987800215649 -1.1128702556702692 69.17219440417054 0.7498584011670794 0.020370078704211 -2.8019529855259737 6.235237858395974 0.0868593022316406 0.14385597687535406 -0.023946643230064703 10.294000933047888 -0.4181034132965721 3.3130462227210957 -0.20589439834359477 50.68432373614465 -2.8408844234648116 16.394398904396763 -24.173980953946703 36.08880712137977
-43.907226994633675 58.95606875419617 -82.45350976940244 4.97420052250403 20.97159553516745 3.918430861738479 -12.149298877676792 11.951330113452205 0.4821249641820701 5.511023509189413 -8.184969144715827 0.43414880831740144 -7.6385949922498275 17.714167329414355 -9.040648413745854 13.451239655187004 -26.514572376841475 -15.324024591638432 -0.059835872223896705 0.0008283205194227183 0.026396906893740666 -0.03665356985063874 0.08325026762680288 -0.013637406492856045 -0.0780161682678178 -0.12054755612628887 0.005432204860395185 46.24432170013742 27.820198895182553 9.472755208944834 -28.859659771757407 -29.771749573142568 66.66252335591939 0.23831511853867676 -8.614471076520093 -0.008295691633803611 0.054225939037789044 -0.07945559061475833 0.12028352662618556 0.07235955767564399 -0.028234241120687318 -0.15445512312631804 -0.272133306110114 -0.043136273146627095 0.04035398491605182 7.580666450351657 5.320852686562864 0.5153821691070671 -0.008483521835978962 -0.19231478165441937 -0.1165893547805607 2.7148932599308755 0.9516273118911336 0.13993320713594534 -0.059376488641360456 0.07627752493829255 0.08860313490410947 10.377060302223475 0.8355101472978029 -0.03277106087473606 0.05165261190713385 0.03588869538530309 -0.03443619962940435 2.204860196160986 -0.6884189285921106 -0.16132621339007153 -0.14218063285757043 -0.0012088901222393662 0.16568763602066847 -55.51245468683243 49.47363513971945 -23.340793497853525 28.54239236216844 -39.990682458343784 -82.806659006485 0.8042313493545824 -24.34807052305928 3.1422003531340397 -0.011673913869462496 0.019652161789419188 0.013638447029487414 0.16771913705107122 0.0043403984545579855 -0.007082372560774316 -0.04014998637545058 0.132708254376247 0.1403158311315983 -7.460361205858345 5.323127993330124 -0.35810206906786124 0.10267892748388927 -0.215545348919117 0.03483377800407991 -2.763115676131635 0.8280012080790201 0.18170691090400778 -0.06454864939035261 -0.09857222288456621 0.02589941032202722 -10.292577692379588 0.7685707182545343 0.09036308255415135 -0.1346334872681179 -0.07397062854612074 0.10825721768423273 -2.342230668295575 -0.6308211172601567 0.32469977598385436 0.10135162962908538 0.13919333223018898 0.04029875643330992 -45.69249022652458 -59.299347204213866 -43.15339472332902 -1.173136643255288 69.31349052753059 0.8400057991538464 0.07642608155274033 -2.7845513710680736 6.335918261856547 0.08056965850141089 0.14159970659236235 -0.020121630573151784 10.340915794909414 -0.2981558999610394 3.3305701402538213 -0.19664226678257782 50.40156073469529 -2.8596900686839724 16.43317047322034 -24.294928236221995 36.30313504244019
-44.11588832736015 58.789825439453125 -82.84607043024153 4.952879233236189 21.03839307770288 4.01492521301148 -12.291843218107665 11.964671180448532 0.5213656816242628 5.567398183051406 -8.210072651236564 0.43009242300235434 -7.608502032540398 17.711201319767277 -9.092882285423528 13.412687506190514 -26.62245862987641 -15.298933891722392 -0.06110938233898674 -0.00469532816756064 0.024042706105481232 -0.03337219756297652 0.07574525043070758 -0.01768544083442575 -0.07264000897822442 -0.1123914564836474 -0.0002053692475098707 46.26481909783663 27.700884028118892 9.449715273327088 -28.847536185980633 -29.773989875190335 66.6599688651698 0.26815632174416826 -8.46486346671378 -0.03317636323286756 0.05468345499047412 -0.0740612352743292 0.11591177867055429 0.07763347757109876 -0.022897462140527278 -0.1502626676363996 -0.2712053608783443 -0.03727703805581396 0.0418791981742274 7.586688969652315 5.316199620190793 0.511321408202083 -0.007984277696333343 -0.19368778307972417 -0.11091592217951309 2.7154268684597826 0.9500031142508457 0.13006611842578922 -0.06520477443749696 0.07733300260847109 0.0924402071137757 10.381995113898808 0.8332625881740456 -0.02438033356193407 0.04456356923974819 0.03684225382646034 -0.029269988615509505 2.2083796645742466 -0.6859975731704883 -0.16204354333548154 -0.13608810411791905 0.00013398910160860951 0.15852458185032337 -55.473119627402326 49.418798965968 -23.516802350122877 28.524382860874407 -39.91594311335092 -82.7453443983058 0.7903051272454553 -24.445868586690107 3.1853650142544048 -0.0115599884485408 0.01872965936464434 0.009408638942545455 0.16816320606882784 0.003892460774966798 -0.009705592088882338 -0.048426254658801966 0.1270824196559779 0.1346624088503847 -7.464016210837948 5.329046779132764 -0.3561635226431941 0.09908731519752037 -0.2113239184860789 0.028559555560335622 -2.771642100093338 0.831880968970999 0.1795270667025688 -0.06843001110791815 -0.10815882027150223 0.01637871358841124 -10.29748518329824 0.7660128124103645 0.08186141802818954 -0.1396932700609222 -0.07547983354842912 0.11359522396400926 -2.325162665889948 -0.6357703363657714 0.32162885889999315 0.09713686930265861 0.13816891057639286 0.034200037834723224 -46.238280397816546 -59.19778912144494 -43.77048182427216 -1.2444158571033066 69.47937533190269 0.9368667394862071 0.12067097977902512 -2.795643171393351 6.368296773616993 0.07360190505264584 0.13854078236018832 -0.01642415035464769 10.372256117916017 -0.16838059818350465 3.3368419614591858 -0.1827304521037312 50.101435392375755 -2.8792380700885487 16.470287428717484 -24.397471573778688 36.51879826548334
-44.29265409708023 58.629441261291504 -83.21903124451637 4.947794157399114 21.101673072815757 4.125354003964954 -12.432584388597656 11.981224143902057 0.5504847524075841 5.6188260924070175 -8.241113299693332 0.42245931307889484 -7.577002907635592 17.700175686899584 -9.136188246082348 13.36662641797524 -26.74122195916459 -15.259872039859088 -0.06148170769003177 -0.00911654163382163 0.022057335532402488 -0.030802445609465004 0.06769181706902785 -0.020739255764935474 -0.06791068994737239 -0.10369096941981475 -0.0064303929848889135 46.268896720771124 27.579687443938894 9.448514867580458 -28.83425146804496 -29.779734064282316 66.66430603529277 0.29466161787034323 -8.323408541455523 -0.05736803949940647 0.055493899624178444 -0.06882701585342513 0.11226829963517561 0.08337691961113901 -0.01725076332677791 -0.1450360788174589 -0.2703485990243308 -0.030531372476780123 0.04284796445845851 7.59309739464108 5.3124733251117275 0.5073522678815122 -0.007013963947368407 -0.19407894481183963 -0.10510097659659925 2.716781807236384 0.9488801884626133 0.12124191422452943 -0.07122483913892273 0.0790139761962347 0.09685635129901207 10.386619151966908 0.8300827082285815 -0.0173529226796372 0.0361739625048569 0.03783017665687922 -0.02396471921898144 2.2113838805919945 -0.6831571216102621 -0.16183863766038115 -0.12947026446198495 0.0015323636124629388 0.15097695601319483 -55.38457647009687 49.343800073786674 -23.775062047924816 28.502282076267537 -39.8214474461838 -82.65902446757518 0.773644908477619 -24.530371687101503 3.2227223070329662 -0.012107790964316979 0.017402148066428893 0.005257591474470206 0.16781273198704155 0.002729114140669665 -0.011779194832215897 -0.057150327219612315 0.12186263434578078 0.12960054498431764 -7.468740140422658 5.334720958785752 -0.3541199353796116 0.09653253096324471 -0.20676439368912514 0.02247753890870372 -2.780850689198396 0.8365353160035395 0.17731149741011945 -0.07161698804681667 -0.11791681271792326 0.008096682332947655 -10.3026419761216 0.7628020365310767 0.07343936789474069 -0.14467549285404982 -0.07656930208189903 0.11747968061104244 -2.308856229576777 -0.6401200996500117 0.31853211516333285 0.09432224439523156 0.13648067991263613 0.029287104109074206 -46.79952045701108 -59.10756915269825 -44.421392021985206 -1.3273725599979311 69.67083236452731 1.0396639679809552 0.15084867652284553 -2.833812402909498 6.320381289042061 0.06617065923567197 0.135095018624983 -0.013055372989950466 10.385076382988132 -0.030150802873963475 3.3305782511034607 -0.1661727928951509 49.79074374741022 -2.8971826845854647 16.50314576126712 -24.477948277674365 36.73140497887291
